<mxfile host="app.diagrams.net" modified="2022-01-18T23:47:57.700Z" agent="5.0 (Macintosh; Intel Mac OS X 10_15_7) AppleWebKit/537.36 (KHTML, like Gecko) Chrome/97.0.4692.71 Safari/537.36" etag="9J710ie-dkhhaDSaLm37" version="16.3.0" type="github">
  <diagram id="dmdRD0B3o_UZXxmLqh8O" name="Page-1">
    <mxGraphModel dx="1255" dy="841" grid="1" gridSize="10" guides="1" tooltips="1" connect="1" arrows="1" fold="1" page="1" pageScale="1" pageWidth="827" pageHeight="1169" background="none" math="0" shadow="0">
      <root>
        <mxCell id="0" />
        <mxCell id="1" parent="0" />
        <mxCell id="oHRNlTIZrRkAGX9toLHT-1" value="KeCharts" style="rounded=0;whiteSpace=wrap;html=1;" vertex="1" parent="1">
          <mxGeometry x="200" y="470" width="420" height="50" as="geometry" />
        </mxCell>
        <mxCell id="oHRNlTIZrRkAGX9toLHT-2" value="LineChart" style="rounded=0;whiteSpace=wrap;html=1;" vertex="1" parent="1">
          <mxGeometry x="440" y="420" width="110" height="40" as="geometry" />
        </mxCell>
        <mxCell id="oHRNlTIZrRkAGX9toLHT-3" value="ListChart" style="rounded=0;whiteSpace=wrap;html=1;" vertex="1" parent="1">
          <mxGeometry x="320" y="420" width="110" height="40" as="geometry" />
        </mxCell>
        <mxCell id="oHRNlTIZrRkAGX9toLHT-5" value="QuotaCard" style="rounded=0;whiteSpace=wrap;html=1;" vertex="1" parent="1">
          <mxGeometry x="200" y="420" width="110" height="40" as="geometry" />
        </mxCell>
        <mxCell id="oHRNlTIZrRkAGX9toLHT-6" value="其他图表" style="rounded=0;whiteSpace=wrap;html=1;" vertex="1" parent="1">
          <mxGeometry x="560" y="420" width="60" height="40" as="geometry" />
        </mxCell>
        <mxCell id="oHRNlTIZrRkAGX9toLHT-8" value="渲染" style="text;html=1;align=center;verticalAlign=middle;resizable=0;points=[];autosize=1;strokeColor=none;fillColor=none;" vertex="1" parent="1">
          <mxGeometry x="85" y="460" width="40" height="20" as="geometry" />
        </mxCell>
        <mxCell id="oHRNlTIZrRkAGX9toLHT-9" value="数据" style="text;html=1;align=center;verticalAlign=middle;resizable=0;points=[];autosize=1;strokeColor=none;fillColor=none;" vertex="1" parent="1">
          <mxGeometry x="85" y="230" width="40" height="20" as="geometry" />
        </mxCell>
        <mxCell id="oHRNlTIZrRkAGX9toLHT-10" value="解析" style="text;html=1;align=center;verticalAlign=middle;resizable=0;points=[];autosize=1;strokeColor=none;fillColor=none;" vertex="1" parent="1">
          <mxGeometry x="85" y="340" width="40" height="20" as="geometry" />
        </mxCell>
        <mxCell id="oHRNlTIZrRkAGX9toLHT-11" value="配置" style="text;html=1;align=center;verticalAlign=middle;resizable=0;points=[];autosize=1;strokeColor=none;fillColor=none;" vertex="1" parent="1">
          <mxGeometry x="85" y="650" width="40" height="20" as="geometry" />
        </mxCell>
        <mxCell id="oHRNlTIZrRkAGX9toLHT-13" value="数据格式" style="rounded=0;whiteSpace=wrap;html=1;" vertex="1" parent="1">
          <mxGeometry x="460" y="600" width="120" height="60" as="geometry" />
        </mxCell>
        <mxCell id="oHRNlTIZrRkAGX9toLHT-14" value="数据服务" style="rounded=0;whiteSpace=wrap;html=1;" vertex="1" parent="1">
          <mxGeometry x="360" y="710" width="120" height="60" as="geometry" />
        </mxCell>
        <mxCell id="oHRNlTIZrRkAGX9toLHT-15" value="数据服务" style="rounded=0;whiteSpace=wrap;html=1;" vertex="1" parent="1">
          <mxGeometry x="490" y="710" width="120" height="60" as="geometry" />
        </mxCell>
        <mxCell id="oHRNlTIZrRkAGX9toLHT-16" value="" style="rounded=0;whiteSpace=wrap;html=1;" vertex="1" parent="1">
          <mxGeometry x="85" y="740" width="200" height="110" as="geometry" />
        </mxCell>
        <mxCell id="oHRNlTIZrRkAGX9toLHT-12" value="json schema" style="rounded=0;whiteSpace=wrap;html=1;" vertex="1" parent="1">
          <mxGeometry x="125" y="790" width="120" height="40" as="geometry" />
        </mxCell>
        <mxCell id="oHRNlTIZrRkAGX9toLHT-18" value="formily 可视化" style="text;html=1;align=center;verticalAlign=middle;resizable=0;points=[];autosize=1;strokeColor=none;fillColor=none;" vertex="1" parent="1">
          <mxGeometry x="140" y="750" width="90" height="20" as="geometry" />
        </mxCell>
      </root>
    </mxGraphModel>
  </diagram>
</mxfile>
